<?xml version="1.0" encoding="UTF-8"?>
<svg id="Camada_2" data-name="Camada 2" xmlns="http://www.w3.org/2000/svg" viewBox="0 0 779.66 479.25">
  <defs>
    <style>
      .cls-1 {
        fill: #fab612;
      }

      .cls-2 {
        fill: #fff;
      }

      .cls-3 {
        fill: #474998;
      }

      .cls-4 {
        fill: #ce3b8e;
      }

      .cls-5 {
        fill: #6870b3;
      }

      .cls-6 {
        fill: #eb7140;
      }

      .cls-7 {
        fill: #3fbfe9;
      }

      .cls-8 {
        fill: #7664aa;
      }

      .cls-9 {
        fill: #f4f2f9;
      }

      .cls-10 {
        fill: #f18656;
      }

      .cls-11 {
        fill: #523c90;
      }

      .cls-12 {
        fill: #010101;
      }

      .cls-13 {
        fill: #482f88;
      }
    </style>
  </defs>
  <g id="Camada_1-2" data-name="Camada 1">
    <path class="cls-5" d="m230.74,33.61h432.49c64.26,0,116.43,52.17,116.43,116.43v260.17H0v-145.86C0,137,103.39,33.61,230.74,33.61Z"/>
    <g>
      <path class="cls-13" d="m398.78,28.78c1.18,1.01,1.31,2.78.3,3.96-1.01,1.18-2.78,1.31-3.96.3-1.18-1.01-1.31-2.78-.3-3.96,1.01-1.18,2.78-1.31,3.96-.3Z"/>
      <path class="cls-2" d="m491.11,3.31c.54.46.6,1.27.14,1.81-.46.54-1.27.6-1.81.14-.54-.46-.6-1.27-.14-1.81.46-.54,1.27-.6,1.81-.14Z"/>
      <path class="cls-2" d="m417.77,18.94c.54.46.6,1.27.14,1.81-.46.54-1.27.6-1.81.14-.54-.46-.6-1.27-.14-1.81.46-.54,1.27-.6,1.81-.14Z"/>
      <path class="cls-7" d="m452.77,10.7c-2.66,3.1-7.02,3.14-10.15,1.76-.62-.27-1.22-.61-1.77-1.01-1.03.66-2.12.94-3.25.84-4.21-.39-7.47-6.01-7.6-6.25l.76-.44c.03.06,3.17,5.47,6.92,5.81.83.08,1.65-.11,2.43-.55-1.91-1.68-3.13-4.15-2.42-7.05.54-2.22,1.71-3.6,3.22-3.79,1.3-.17,2.62.61,3.36,1.97.95,1.74,1.03,4.69-1.58,7.78-.37.42-.73.8-1.11,1.12.45.3.92.56,1.39.76,3.13,1.38,7.31,1.26,9.63-2.18l.73.49c-.18.26-.36.51-.56.74Zm-11.91-.34c.4-.31.78-.68,1.17-1.15,2.32-2.75,2.29-5.31,1.48-6.8-.57-1.05-1.55-1.65-2.48-1.52-1.12.14-2.03,1.29-2.48,3.13-.67,2.74.58,4.91,2.32,6.33Z"/>
      <path class="cls-4" d="m461.73,69.22l-.68-.56s3.85-4.74,2.86-8.31c-.34-1.23-1.23-2.2-2.65-2.89-1.55,2.79-4.53,5.11-7.79,4.97-2.37-.1-3.12-1.11-3.36-1.71-.37-.93-.03-2.09.92-3.07,1.59-1.66,5.05-3.02,9.56-1.42.09.03.17.06.26.1.21-.47.37-.95.48-1.42.42-1.81.11-3.42-.86-4.7-1.07,1.04-2.78,1.56-5.09,1.55-3.58-.01-5.96-.83-6.53-2.23-.27-.68-.08-1.41.54-2.01,1.36-1.32,4.65-1.95,8.66-.2.93.41,1.73.93,2.37,1.53,1.76-3.14-1.78-8.98-1.82-9.04l.75-.46c.16.26,3.85,6.34,1.83,9.93-.05.08-.09.16-.14.24,1.21,1.51,1.64,3.45,1.14,5.59-.12.53-.3,1.05-.53,1.57,1.65.81,2.69,1.97,3.1,3.44,1.11,4.01-2.86,8.89-3.03,9.1Zm-10.22-10.79c-.59.68-.8,1.4-.58,1.96.28.69,1.19,1.1,2.58,1.16,2.89.12,5.55-1.94,6.95-4.44-.05-.02-.11-.04-.16-.06-3.86-1.37-7.12-.38-8.64,1.2-.06.06-.11.12-.16.17Zm-1.61-10.18c-.2.24-.37.57-.22.94.32.8,2,1.66,5.72,1.68,2.09,0,3.61-.44,4.51-1.33-.58-.57-1.32-1.05-2.19-1.43-3.89-1.7-6.73-.91-7.7.02-.04.04-.08.08-.11.12Z"/>
      <path class="cls-2" d="m505.34,75.91c0,2.18-1.77,3.96-3.96,3.96s-3.96-1.77-3.96-3.96,1.77-3.96,3.96-3.96,3.96,1.77,3.96,3.96Z"/>
      <g>
        <path class="cls-4" d="m433.4,471.15v.08l.25,6.85c.03.66.58,1.19,1.24,1.16l75.22-2.5c.64-.03,1.16-.55,1.16-1.2l.03-9.63-1.97.27s1.54-6.82,2.39-12.67c.86-5.86-.27-20.92-1.88-21.3-1.29-.31-21.37-.44-29.89-.48-2.15,0-4.05,1.37-4.77,3.41-1.3,3.69-4.02,9.32-8.98,11.27-7.62,3-24.77,7.65-28.22,12.43-2.53,3.55-2.59,7.91-2.45,9.9.01.24-.03.47-.13.64-.17.34-.52.58-.93.62l-.23.04c-.48.16-.82.59-.85,1.12Z"/>
        <path class="cls-8" d="m433.4,471.15v.08l.25,6.85c.03.66.58,1.19,1.24,1.16l75.22-2.5c.64-.03,1.16-.55,1.16-1.2l.03-9.63-1.97.27-74.86,3.82-.23.04c-.48.16-.82.59-.85,1.12Z"/>
        <path class="cls-4" d="m394.5,423.3l.04.08,3.16,6.08c.31.59,1.03.83,1.62.51l66.89-34.48c.56-.3.81-1,.53-1.58l-4.1-8.72-1.66,1.09s-1.53-6.82-3.27-12.48c-1.73-5.66-9.21-18.79-10.83-18.44-1.3.27-19.5,8.76-27.22,12.37-1.94.92-3.07,2.97-2.85,5.12.41,3.89.36,10.14-3.29,14.04-5.61,5.98-19.1,17.53-20.17,23.33-.77,4.29,1.05,8.25,2.03,10,.12.21.17.43.16.63,0,.38-.22.75-.58.96l-.19.14c-.37.35-.49.89-.29,1.37Z"/>
        <path class="cls-8" d="m394.5,423.3l.04.08,3.16,6.08c.31.59,1.03.83,1.62.51l66.89-34.48c.56-.3.81-1,.53-1.58l-4.1-8.72-1.66,1.09-66.01,35.52-.19.14c-.37.35-.49.89-.29,1.37Z"/>
        <path class="cls-1" d="m522.25,262.5s-1.06,37.77-6.34,64.04c-5.28,26.27,3.17,106.16,3.17,106.16l-60.24,2.5s-5.28-58.92-4.23-94.11,9.51-65.43,9.51-65.43l-4.23-33.23,62.35,20.07Z"/>
        <path class="cls-1" d="m461.65,242.05s-66.26,27.63-74.68,55c-8.42,27.37,18.16,83.61,18.16,83.61l48.37-22.52s-11.73-35.55-9.78-38.22c1.96-2.67,17.92-8.31,17.92-8.31l15.97-43.13-15.97-26.44Z"/>
        <path class="cls-11" d="m456.58,316.21c-.35-.03-.56-.29-.53-.59.02-.2,2.1-19.71,4.82-29.87l2.66-9.97-15.13-17.83c-.19-.22-.16-.56.06-.75.22-.19.56-.16.75.06l15.31,18.04c.11.13.15.31.11.48l-2.74,10.24c-2.69,10.08-4.77,29.51-4.79,29.7-.03.27-.26.48-.53.48Z"/>
        <path class="cls-11" d="m443.72,320.45s-.08,0-.12-.01c-.47-.11-11.61-2.73-12.66-8.32-.17-.89,0-1.49.52-1.76,2.02-1.07,9.5,6.06,12.63,9.18.17.17.2.43.09.63-.1.17-.27.27-.46.27Zm-11.76-9.15s-.06.15.02.62c.68,3.61,6.69,5.94,9.88,6.93-4.74-4.55-9.12-7.88-9.91-7.55Z"/>
        <path class="cls-11" d="m512.03,283.59c-.09,0-.19-.02-.27-.08-8.89-5.35-9.4-15.53-9.4-15.64-.01-.29.22-.54.51-.55.35.02.54.22.55.51,0,.1.5,9.72,8.89,14.77.25.15.33.48.18.73-.1.17-.27.26-.45.26Z"/>
        <path class="cls-2" d="m413.54,387.41c-.22,0-.42-.13-.5-.35-.1-.27.04-.58.32-.68l12.31-4.48-8.62-2.33c-.28-.08-.45-.37-.37-.65.08-.28.37-.45.65-.37l10.24,2.77c.22.06.38.26.39.49,0,.23-.13.44-.35.52l-13.88,5.05c-.06.02-.12.03-.18.03Z"/>
        <path class="cls-2" d="m482.45,447.2s-16.25-.27-16.25-.27c-.29,0-.53-.25-.52-.54,0-.29.22-.57.54-.52l14.15.24-8.27-4.66c-.26-.15-.35-.47-.2-.72.15-.26.47-.34.72-.2l10.09,5.69c.21.12.32.37.25.6-.06.23-.27.39-.51.39Z"/>
        <polygon class="cls-11" points="518.49 166.99 513.6 161.24 491.18 163.48 471.68 211.32 470.34 250.51 495.76 257.87 517.66 212.19 518.49 166.99"/>
        <path class="cls-10" d="m541.24,275.12c.02,2.37,3.26,7.3,3.26,7.3,0,0,.67,8.53,3.14,9.3,2.47.78,5.48-2.91,5.48-2.91,0,0,4.99,2.69,6.98,2.44,2-.25,11.43-.36,14.04-5.03,2.61-4.67-4.13-26.14-4.13-26.14l-20.51-3.36s-8.29,16.03-8.27,18.39Z"/>
        <path class="cls-12" d="m553.12,289.35c-.33-.02-.55-.27-.53-.57l.41-6.07c.02-.29.23-.54.57-.49.29.02.51.27.49.57l-.41,6.07c-.02.28-.25.49-.53.49Z"/>
        <path class="cls-12" d="m544.5,282.96c-.35-.04-.56-.3-.53-.59l1.6-13.67c.03-.29.27-.5.59-.46.29.03.5.3.46.59l-1.6,13.67c-.03.27-.26.47-.53.47Z"/>
        <path class="cls-10" d="m427.87,147.63s7.55-7.21,8.44-8.85c2.41-4.45-.53-14.99-2.86-16.36-2.33-1.38-4.09,6.21-4.09,6.21,0,0,1.4-12.4-.82-16.11-2.21-3.71-5,.47-5,.47,0,0,.31-4.96-2.73-6.67-3.03-1.71-4.27,3.81-4.27,3.81,0,0-1.84-5.19-5.07-1.75-3.23,3.44-4.14,15.8-3.2,22.03.95,6.22,2.09,8.56,2.09,8.56l.25,3.37,11.27,10.88,5.97-5.58Z"/>
        <path class="cls-12" d="m428.83,125.1c-.08,0-.16-.02-.24-.06-.05-.03-5.55-2.8-11.03-4.61-.28-.09-.43-.39-.34-.67.09-.28.39-.43.67-.34,5.56,1.84,11.12,4.65,11.18,4.67.26.13.36.45.23.71-.09.18-.28.29-.47.29Z"/>
        <path class="cls-12" d="m423.04,140.41c-.24,0-.46-.17-.52-.42-1.31-5.99,6.21-11.55,6.53-11.79.23-.17.57-.12.74.12.17.24.12.57-.11.74-.07.05-7.28,5.39-6.12,10.7.06.29-.12.57-.4.63-.04,0-.08.01-.11.01Z"/>
        <path class="cls-11" d="m513.77,163.5l-18.01,94.37,28.97,9.99,6.32-41.39s5.46,12.7,7.36,22.55c1.88,9.85,1.88,15,1.88,15l37.4-4.22s.64-37.3-18.22-62.82c-17.06-23.06-41.36-33.87-45.88-35.73.16,1.33.17,2.26.17,2.26Z"/>
        <path class="cls-11" d="m423.67,189.79c14.46,14.22,36.14,17.47,36.14,17.47l-5.34,37.98,16.87,5.6c2.22-17.76,9.11-63.23,23.68-85.57,1.06-1.62,2.05-3.06,3-4.33-5.25.14-11.37.57-17.46,1.59-16.04,2.65-26.1,1.6-33.02-5.67-6.9-7.28-10.5-17.99-10.5-17.99l-28.22,1.46s.37,35.23,14.84,49.45Z"/>
        <path class="cls-10" d="m515.32,150.86l-1.55,12.65s-2.89,3.37-10.88,3.11c-5.95-.2-7.87-1.67-7.87-1.67l1.61-6.32,1.58-6.16,14.66-1.38,2.46-.23Z"/>
        <path class="cls-12" d="m512.86,151.11c-.08.37-.27.79-.54,1.26-3.81,6.41-12.43,7.06-15.87,6.98l1.76-6.74,14.66-1.49Z"/>
        <path class="cls-10" d="m498.75,121.4s-9.06,16.15-7.35,25.9c1.71,9.75,10.5,9.12,15.86,7.8,5.35-1.32,8.07-4.25,8.07-4.25,0,0,4.67,2.12,8.35-2.05,3.68-4.17,2.21-9.53-.43-10.98-2.64-1.46-6.12.21-6.12.21l3.06-4.65s-8.33-26.02-21.43-11.98Z"/>
        <path class="cls-11" d="m516.1,139.38s-2.75-1.07-4.7-5.41c-2.12-4.7-1.65-7.76-1.65-7.76,0,0-5.17,2.82-9.17,1.41-6.21-2.19-1.18-6.11-1.18-6.11l-4.94,8.94s-1.65-1.88-1.41-4.23c.24-2.35,2.59-3.76,2.59-3.76,0,0-.71-6.59,4.7-8.47,5.41-1.88,9.88,3.76,9.88,3.76,0,0-.94-6.35,6.11-4,7.06,2.35,7.06,12.93,7.06,12.93,0,0,4.7,1.65,6.35,5.17,1.65,3.53-4.47,8.47-4.47,8.47,0,0-.94-5.41-9.17-.94Z"/>
        <path class="cls-12" d="m503.48,136.94s-.08,0-.12-.01c-.31-.07-.5-.37-.43-.68l.64-2.91c.07-.31.37-.5.68-.43.31.07.5.37.43.68l-.64,2.91c-.06.27-.3.45-.56.45Z"/>
        <path class="cls-12" d="m495.28,136.07s-.09,0-.14-.02c-.31-.08-.49-.39-.42-.69l.72-2.88c.08-.31.39-.49.69-.42.31.08.49.39.42.69l-.72,2.88c-.07.26-.3.43-.55.43Z"/>
        <path class="cls-12" d="m506.93,131.5c-.24,0-.46-.15-.54-.39-.46-1.37-2.46-.98-2.48-.97-.31.07-.61-.14-.67-.45-.06-.31.14-.61.45-.67,1.04-.21,3.17-.12,3.79,1.73.1.3-.06.62-.36.72-.06.02-.12.03-.18.03Z"/>
        <path class="cls-12" d="m495.28,130.09c-.1,0-.2-.03-.29-.08-.27-.16-.36-.51-.2-.78,1.08-1.81,3.02-1.68,3.89-1.35.3.11.45.44.34.74-.11.3-.44.45-.73.34-.17-.06-1.67-.55-2.51.87-.11.18-.3.28-.49.28Z"/>
        <path class="cls-12" d="m501.27,149.06c-.17,0-.35-.02-.54-.06-2.46-.57-2.75-1.84-2.77-1.98-.05-.26.11-.52.37-.6l4.74-1.42c.16-.05.35-.02.48.09.14.11.21.27.2.45-.01.23-.15,2.27-1.32,3.15-.34.26-.74.39-1.17.39Zm-1.95-1.84c.27.24.77.53,1.66.74.33.08.6.04.83-.14.42-.32.66-1.01.78-1.58l-3.27.98Z"/>
        <path class="cls-12" d="m516.71,145.56c-.16,0-.32-.07-.43-.22-.17-.24-.12-.57.11-.74l5.53-4.08c.24-.17.57-.12.74.11.17.24.12.57-.11.74l-5.53,4.08c-.1.07-.21.1-.31.1Z"/>
        <path class="cls-12" d="m522.25,146.03c-.08,0-.15-.02-.23-.05l-3.76-1.78c-.27-.13-.38-.44-.25-.71.12-.27.44-.38.71-.25l3.76,1.78c.27.13.38.44.25.71-.09.19-.28.3-.48.3Z"/>
        <path class="cls-12" d="m496.88,143.52c-.28,0-.51-.21-.53-.49-.31-4.2,2.83-8.27,2.97-8.44.18-.23.51-.27.74-.09.23.18.27.51.09.74-.03.04-3.03,3.93-2.75,7.71.02.29-.2.55-.49.57-.01,0-.03,0-.04,0Z"/>
        <path class="cls-2" d="m503.21,167.1c-2.49,0-5.31-.44-8.39-1.66-.27-.11-.4-.42-.3-.69.11-.27.41-.41.69-.3,10.65,4.23,18.16-1.31,18.24-1.37.23-.18.57-.13.74.1.18.23.13.57-.1.74-.06.04-4.28,3.17-10.88,3.17Z"/>
        <path class="cls-2" d="m534.13,234.88c-.23,0-.44-.15-.51-.38-.07-.23.03-.48.23-.6.84-.52,8.27-4.99,11.45-4.11.59.17,1.02.5,1.28,1,.25.5.25,1-.02,1.45-1.39,2.32-10.59,2.61-12.42,2.64h0Zm10.19-4.15c-2.03,0-5.61,1.68-8.06,3.01,3.89-.22,8.67-.86,9.38-2.04.06-.11.09-.22-.01-.42-.12-.23-.31-.38-.62-.46-.2-.06-.43-.08-.69-.08Z"/>
        <path class="cls-2" d="m531.05,227s-.07,0-.1-.01c-.29-.06-.47-.34-.41-.63l1.7-8.4c.06-.29.33-.47.62-.42.29.06.47.34.41.63l-1.7,8.4c-.05.25-.27.43-.52.43Z"/>
        <path class="cls-2" d="m459.66,206.58s-.06,0-.09,0c-.29-.05-.48-.32-.43-.61l3.3-19.14c.05-.29.31-.48.61-.43.29.05.48.32.43.61l-3.3,19.14c-.04.26-.27.44-.52.44Z"/>
        <path class="cls-2" d="m444.99,167.33c-.47,0-.95-.08-1.44-.24-.89-.3-1.33-.76-1.34-1.37,0-2.09,6.82-4.68,9.76-5.69.21-.07.43-.01.57.15.14.16.17.4.07.59-.15.3-3.37,6.57-7.63,6.57Zm5.97-5.81c-4.28,1.6-7.68,3.43-7.68,4.2,0,.03.1.2.62.37,3.01,1.02,5.8-2.58,7.06-4.57Z"/>
        <path class="cls-2" d="m494.26,139.75c-.28,0-.57-.04-.84-.13-.89-.27-1.58-.93-1.97-1.87-.37-.9-.4-1.95-.1-2.97.31-1.01.92-1.87,1.73-2.41.84-.57,1.79-.73,2.68-.46.89.27,1.58.93,1.97,1.87.37.9.4,1.96.1,2.97-.31,1.01-.92,1.87-1.73,2.41-.58.39-1.21.59-1.83.59Zm.65-6.9c-.42,0-.85.14-1.24.41-.61.41-1.07,1.06-1.3,1.84-.24.78-.21,1.58.06,2.26.26.64.72,1.09,1.3,1.26.58.17,1.2.06,1.78-.33.61-.41,1.07-1.06,1.3-1.84.24-.78.21-1.58-.06-2.26-.26-.64-.72-1.09-1.3-1.26-.17-.05-.35-.08-.53-.08Z"/>
        <path class="cls-2" d="m504.42,141.93c-.39,0-.79-.06-1.17-.18-1.03-.31-1.88-1.01-2.39-1.96-.51-.95-.62-2.04-.3-3.07.31-1.03,1.01-1.88,1.96-2.39.95-.51,2.04-.62,3.07-.3,2.13.65,3.33,2.9,2.69,5.03-.31,1.03-1.01,1.88-1.95,2.39-.59.32-1.24.48-1.9.48Zm-.01-7c-.48,0-.96.12-1.4.35-.7.37-1.21,1-1.44,1.76-.23.76-.15,1.56.22,2.26.37.7,1,1.21,1.76,1.44.76.23,1.56.15,2.26-.22.7-.37,1.21-1,1.44-1.76.48-1.57-.41-3.23-1.98-3.7-.28-.09-.58-.13-.87-.13Z"/>
        <path class="cls-2" d="m500.85,138.43c-.21,0-.4-.12-.49-.33-.76-1.83-2.77-1.05-2.86-1.02-.27.11-.58-.03-.69-.3-.11-.27.03-.58.3-.69,1.06-.42,3.31-.62,4.23,1.6.11.27-.02.58-.29.69-.07.03-.14.04-.2.04Z"/>
        <path class="cls-2" d="m507.77,139.44c-.22,0-.42-.13-.5-.35-.1-.28.04-.58.32-.68.25-.09,6.16-2.17,12.86-1.2.29.04.49.31.45.6-.04.29-.31.49-.6.45-6.42-.92-12.29,1.13-12.35,1.15-.06.02-.12.03-.18.03Z"/>
      </g>
    </g>
    <g>
      <path class="cls-3" d="m268.12,135.09c-.13,0-.25-.08-.3-.21-.07-.17.02-.36.19-.42,2.92-1.14,5.16-5.56,5.71-11.27.33-3.48-.04-7.86-1.79-10.86-.57,2.32-1.68,4.2-3.64,5.03-1.51.64-2.81.32-3.66-.92-1.35-1.95-1.12-5.49.47-7.15.68-.71,2.22-1.67,4.79-.06.63.4,1.19.9,1.68,1.47.9-6.47-1.52-15.51-1.55-15.64-.05-.17.05-.35.23-.4.18-.04.35.06.4.23.15.55,2.66,9.94,1.48,16.53,2.15,3.15,2.61,8.01,2.25,11.82-.56,5.95-2.97,10.59-6.12,11.82-.04.02-.08.02-.12.02Zm-.87-26.09c-.66,0-1.23.25-1.7.74-1.35,1.41-1.56,4.67-.41,6.33.67.96,1.66,1.2,2.87.69,1.9-.81,2.92-2.77,3.39-5.19-.52-.71-1.15-1.32-1.88-1.78-.83-.52-1.6-.78-2.28-.78Z"/>
      <path class="cls-2" d="m284.88,44.29c0,.5-.41.91-.91.91s-.91-.41-.91-.91.41-.91.91-.91.91.41.91.91Z"/>
      <path class="cls-4" d="m288.82,75.66c-1.42,12.33-14.3,22.07-17.81,21.97-3.63-.1-16.06-10.55-16.54-22.95-.5-13.17,8.32-22.24,17.81-21.97,9.48.27,17.99,10.31,16.54,22.95Z"/>
      <polygon class="cls-4" points="270.91 96.58 269.3 99.58 273.86 99.71 270.91 96.58"/>
      <g>
        <path class="cls-10" d="m321.67,154.28s-3.16-1.38-4.83-6.38c-1.13-3.39-.39-10.58,1.28-11.52,1.67-.94,2.79,4.45,2.79,4.45,0,0-.8-8.79.83-11.37,1.62-2.59,3.53.41,3.53.41,0,0-.14-3.51,2.03-4.67,2.17-1.16,2.96,2.76,2.96,2.76,0,0,1.38-3.64,3.61-1.16,2.23,2.48,2.68,11.23,1.92,15.62-.77,4.38-1.61,6.02-1.61,6.02l-.23,2.38-8.13,7.51-4.14-4.04Z"/>
        <path class="cls-12" d="m321.35,138.34c-.14,0-.27-.08-.34-.21-.09-.19-.01-.41.18-.5.04-.02,4.02-1.92,7.97-3.13.2-.06.41.05.47.25.06.2-.05.41-.25.47-3.9,1.2-7.83,3.07-7.87,3.09-.05.02-.11.04-.16.04Z"/>
        <path class="cls-12" d="m325.21,149.25s-.06,0-.09-.01c-.2-.05-.33-.25-.28-.45.9-3.74-4.1-7.62-4.16-7.66-.16-.13-.2-.36-.07-.53.13-.17.36-.2.53-.07.22.17,5.45,4.22,4.43,8.43-.04.17-.19.29-.36.29Z"/>
        <path class="cls-1" d="m336.14,148.39s9.75,27.18,0,43.74c-9.76,16.56-42.37,13.8-42.37,13.8l-3.11-26.31s14.84.71,20.83-7.62c4.49-6.24,2.54-22.84,2.54-22.84l22.12-.76Z"/>
        <path class="cls-2" d="m314.95,176.53c-.19,0-.38-.06-.56-.17-1.47-.93-2.23-6.12-2.31-6.71-.02-.16.06-.32.2-.39.14-.07.32-.04.43.07.42.42,4.05,4.18,3.56,6.13-.08.34-.33.8-1.04,1.02-.1.03-.2.05-.3.05Zm-1.93-5.77c.37,2.02,1.04,4.5,1.77,4.96.11.07.17.06.23.04.4-.13.5-.34.53-.48.24-.95-1.2-3-2.53-4.52Z"/>
        <path class="cls-11" d="m275.1,146.95s-7.15-10.47-17.15-4.53-8.18,16.83-15.87,19.83c-7.69,3-17.21,8.93-12.1,17.37,4.27,7.06,17.97,5.33,17.97,5.33,0,0,7.1,10.53,18.22,6.09,11.12-4.45,15.92-10.67,14.15-20-1.77-9.33-5.22-24.08-5.22-24.08Z"/>
        <path class="cls-11" d="m294.54,161.61s5.57-9.34-7.28-15.63c-12.86-6.28-21.3,3.96-21.08,9.17.22,5.21,3.33,7.44,3.33,7.44,0,0-.45,11.34,10.33,9.89,10.78-1.45,14.7-10.87,14.7-10.87Z"/>
        <path class="cls-9" d="m319.53,370.35s19.84,10.55,25.58,16.46c5.75,5.9,5.89,9.77,5.12,11.63-.77,1.86-42.57-1.78-42.57-1.78,0,0,.03-11.52-4.46-10.97-4.49.55-2.49,10.96-2.49,10.96l-12.66-.65s-.1-11.46,1.01-15.91c1.2-4.8,4.28-11.22,4.28-11.22l26.18,1.49Z"/>
        <path class="cls-10" d="m299.85,295.92s4.81,15.97-6.43,36.25c-12.89,23.25-21.83,35-21.83,35l-21.28-5.62s19.21-47.86,19.54-67.24c.33-19.38,30,1.62,30,1.62Z"/>
        <path class="cls-10" d="m321.2,288.24s.94,20.91-1.89,43.92c-2.82,23.01-4.9,36.63-4.9,36.63l-21.06.07s1.84-50.28-1.59-69.34c-3.44-19.07,29.44-11.28,29.44-11.28Z"/>
        <path class="cls-2" d="m274.35,371.88s15.15,16.59,18.59,24.08c3.44,7.49,2.28,11.18.93,12.67-1.35,1.5-39.51-15.94-39.51-15.94,0,0,3.89-10.84-.53-11.83-4.42-.98-6.02,9.49-6.02,9.49l-11.7-4.86s3.75-10.83,6.28-14.65c2.74-4.12,8.13-10.08,8.13-10.08l23.83,11.12Z"/>
        <path class="cls-10" d="m315.35,366.83s17.01,10.56,13.78,11.45c-3.22.89-21.18.3-26.37-1.84-5.18-2.14-9.36-7.78-9.36-7.78l12.19-5.15,9.75,3.32Z"/>
        <path class="cls-4" d="m286.9,299.91c2.08.11,4.25.18,6.51.2,3.37.03,6.57-.2,9.57-.6,8.04-1.07,14.7-3.43,19.63-5.7-1.23-38.08-17.78-72.52-17.78-72.52l-9.47,2.11-1.68.37-6.78,76.14Z"/>
        <path class="cls-4" d="m261.14,262.38c2.45,22.99,4.75,30.96,4.75,30.96,0,0-.46,1.3-1.23,3.53,5.28,1.23,12.82,2.55,22.24,3.04,2.08.11,4.25.18,6.51.2,3.37.03,6.57-.2,9.57-.6,1.2-4.11,1.99-6.93,2.15-7.69.92-4.21-5.93-68.37-5.93-68.37l-3.84-.05-26.31,2.85s-10.36,13.13-7.91,36.13Z"/>
        <path class="cls-10" d="m278.69,170.73l.34,9.12s1.74,2.56,7.1,2.8c3.99.17,5.35-.78,5.35-.78l-.73-4.6-.71-4.48-9.71-1.76-1.63-.3Z"/>
        <path class="cls-12" d="m278.69,170.3c.03.25.14.54.3.87,2.21,4.48,9.46,5.99,11.76,6.11l-.71-4.48-11.34-2.49Z"/>
        <path class="cls-10" d="m291.29,151.92s5.21,11.26,3.56,17.68c-1.65,6.42-7.49,5.55-11,4.39-3.51-1.16-5.17-3.26-5.17-3.26,0,0-3.23,1.17-5.47-1.8-2.24-2.98-.98-6.48.86-7.31,1.84-.84,4.08.46,4.08.46l-1.8-3.27s6.91-16.95,14.94-6.89Z"/>
        <path class="cls-12" d="m291.84,159.82s-.07,0-.1-.01c-.2-.06-.31-.26-.26-.46,0-.03.2-.7.84-1.05.44-.24.96-.26,1.56-.07.2.06.31.28.24.47-.06.2-.28.31-.47.24-.39-.13-.72-.12-.97,0-.35.19-.47.59-.47.59-.05.16-.2.27-.36.27Z"/>
        <path class="cls-12" d="m285.08,160.55c-.08,0-.17-.03-.24-.09-.16-.13-.18-.37-.05-.53,1.17-1.41,2.57-.93,3.14-.47.16.13.19.36.06.53-.13.16-.36.19-.53.06-.11-.09-1.13-.81-2.1.36-.07.09-.18.14-.29.14Z"/>
        <path class="cls-12" d="m292.98,156.54s-.04,0-.05,0l-2.23-.33c-.21-.03-.35-.22-.32-.43.03-.2.21-.35.43-.32l2.23.33c.21.03.35.22.32.43-.03.19-.19.32-.37.32Z"/>
        <path class="cls-12" d="m284.68,157.46c-.15,0-.29-.09-.35-.23-.08-.19,0-.41.2-.49l2.58-1.08c.19-.08.41,0,.49.2.08.19,0,.41-.2.49l-2.58,1.09s-.1.03-.15.03Z"/>
        <path class="cls-12" d="m291.23,165.77c-.24-.02-.39-.21-.37-.41.36-3.54-1.11-5.33-1.13-5.34-.13-.16-.12-.39.04-.53.16-.13.39-.12.53.04.07.08,1.7,2.02,1.3,5.91-.02.19-.18.34-.37.34Z"/>
        <path class="cls-12" d="m278.18,166.71c-.05,0-.1-.01-.16-.03l-4.58-2.08c-.19-.09-.27-.31-.19-.5.09-.19.31-.27.5-.19l4.58,2.08c.19.09.27.31.19.5-.06.14-.2.22-.34.22Z"/>
        <path class="cls-12" d="m274.09,167.77c-.1,0-.19-.04-.27-.11-.15-.15-.14-.38,0-.53l2.02-2c.15-.14.38-.14.53,0,.15.15.14.38,0,.53l-2.02,2c-.07.07-.17.11-.26.11Z"/>
        <path class="cls-10" d="m271.59,367.16s12.48,15.65,9.15,15.41c-3.33-.24-20.06-6.81-24.23-10.56s-6-11.24-6-11.24h13l8.08,6.39Z"/>
        <path class="cls-6" d="m294.79,329.22c-.07,0-.14-.02-.21-.06-.17-.11-.22-.35-.11-.52,7.15-10.94,8.12-27.25,8.13-27.41.01-.21.2-.38.39-.35.21.01.37.19.35.39,0,.16-.99,16.67-8.25,27.78-.07.11-.19.17-.31.17Z"/>
        <path class="cls-11" d="m305.21,293.51s-.04,0-.06,0c-.2-.03-.34-.22-.31-.43,2.63-17.35-6.23-55.36-6.32-55.75-.03-.15.02-.3.14-.39l5.87-4.33c.17-.12.4-.09.52.08.12.17.09.4-.08.52l-5.67,4.19c.76,3.29,8.82,39.03,6.28,55.79-.03.19-.19.32-.37.32Z"/>
        <path class="cls-11" d="m294.54,161.61s-.93-3.46-4.53-7.24l-3.61-3.78s.4,7.16-2.8,10.25-5.44,1.25-5.44,1.25l-6.14-5.37,10.91-10.05s12.2-.47,11.61,14.96Z"/>
        <path class="cls-1" d="m290.65,179.62l8.24,1.14s7.35,8,7.54,16.91c.19,8.91-1.68,13-1.68,13l2.87,14s-7.23,6.01-19.56,7.3c-12.32,1.28-22.77-2.38-22.77-2.38,0,0,1.83-43.96,1.83-47.7,0-2.52,23.52-2.27,23.52-2.27Z"/>
        <path class="cls-10" d="m279.29,216.68s15.59-3.16,19.51-1.59.78,14.48-.39,16.83c-1.17,2.35-17.26-1.18-17.26-1.18l-4.66-6.65,2.81-7.41Z"/>
        <path class="cls-10" d="m298.8,215.09s9.47,6.43,9.83,10.43-11.28-4.37-11.28-4.37l1.45-6.07Z"/>
        <path class="cls-10" d="m292.62,231.34s-8,1.82-5.46,4c2.55,2.18,10.48-1.39,11.24-3.42.76-2.04-5.06-4.58-5.06-4.58l-.73,4Z"/>
        <path class="cls-1" d="m271.3,180.4s-32.89,5.93-33.78,30.6c-.67,18.62,43.27,24.31,43.27,24.31l2.15-20.67-11.64-34.23Z"/>
        <path class="cls-2" d="m281.3,212.82c-.05,0-.1-.01-.15-.03-.16-.07-16.12-7.17-22.63-7.17-.21,0-.38-.17-.38-.37s.14-.37.38-.38c6.67,0,22.28,6.94,22.94,7.23.19.08.27.31.19.5-.06.14-.2.22-.34.22Z"/>
        <path class="cls-2" d="m269.36,208.14c-.07,0-.15-.02-.21-.06-1.97-1.33-6.51-4.56-6.19-5.93.06-.24.25-.54.84-.62,2.86-.37,5.6,5.41,5.9,6.07.07.15.03.33-.1.44-.07.06-.16.09-.24.09Zm-5.29-5.87c-.06,0-.11,0-.17.01-.17.02-.22.06-.22.06-.07.48,1.97,2.33,4.66,4.26-1.03-1.85-2.76-4.33-4.28-4.33Z"/>
        <path class="cls-10" d="m291.04,179.07l3.53,1.09s1.18,6.76-6.91,7.17c-8.49.44-15.23-7.07-15.23-7.07l7.42-1.19h11.19Z"/>
        <path class="cls-2" d="m286.93,187.73c-8.91-.02-14.74-7.16-14.79-7.23-.13-.16-.1-.4.06-.53.16-.13.4-.1.53.06.06.07,5.66,6.93,14.18,6.95,2.78,0,4.79-.72,6.01-2.14,1.67-1.94,1.28-4.59,1.28-4.61-.03-.2.11-.4.31-.43.2-.03.4.11.43.31.02.12.45,3-1.45,5.21-1.37,1.6-3.58,2.41-6.56,2.41Z"/>
        <path class="cls-11" d="m267.9,293.77c-.78,0-1.51-.03-2.03-.06-.16,0-.3-.12-.34-.28s.03-.32.16-.41c.5-.32,4.96-3.04,6.62-1.19.38.43.3.78.22.95-.39.81-2.68.98-4.62.98Zm-.65-.76c2.4.04,4.39-.19,4.59-.54,0,0-.02-.05-.1-.13-.79-.88-2.98-.08-4.49.68Z"/>
        <path class="cls-12" d="m291.84,232.62h-2.5c-.14,0-.26-.08-.33-.2-.07-.12-.06-.27.01-.38l1.25-1.95c.11-.17.34-.22.52-.11.17.11.23.34.11.52l-.88,1.37h1.81c.21,0,.37.17.37.38s-.17.38-.37.38Z"/>
        <path class="cls-12" d="m300.71,223.13c-.1,0-.21-.04-.28-.12-1-1.11-2.82-2.96-3.44-3.18-.2-.07-.3-.28-.23-.48.07-.2.29-.3.48-.23,1,.35,3.47,3.07,3.75,3.38.14.15.12.39-.03.53-.07.06-.16.1-.25.1Z"/>
        <path class="cls-12" d="m299.8,227.71c-.09,0-.18-.03-.25-.1l-4.62-4.2c-.15-.14-.17-.38-.03-.53.14-.15.38-.16.53-.03l4.62,4.2c.15.14.16.38.03.53-.07.08-.18.12-.28.12Z"/>
        <path class="cls-12" d="m288.6,169.23s-.07,0-.1-.01c-.06-.02-1.44-.41-2.41-1.84-.12-.17-.07-.4.1-.52.17-.12.4-.07.52.1.81,1.19,1.98,1.54,1.99,1.54.2.06.32.26.26.46-.05.17-.2.27-.36.27Z"/>
        <path class="cls-2" d="m306.14,204.91c-.06,0-.11-.01-.17-.04-.19-.09-.26-.32-.17-.5,3.81-7.75-3.63-18.48-3.71-18.59-.12-.17-.08-.4.09-.52.17-.12.4-.08.52.09.32.45,7.78,11.2,3.77,19.35-.07.13-.2.21-.34.21Z"/>
        <path class="cls-2" d="m266.51,157.9c-.19,0-.35-.15-.37-.34-.9-9.44,6.94-12.99,7.02-13.03.19-.08.41,0,.49.19.08.19,0,.41-.19.49-.3.13-7.43,3.38-6.58,12.27.02.21-.13.39-.34.41-.01,0-.02,0-.04,0Z"/>
      </g>
    </g>
  </g>
</svg>