<?xml version="1.0" encoding="UTF-8"?>
<svg id="Camada_2" data-name="Camada 2" xmlns="http://www.w3.org/2000/svg" viewBox="0 0 93.33 103.66">
  <defs>
    <style>
      .cls-1 {
        fill: #fffdfc;
      }

      .cls-2 {
        fill: #ededed;
      }

      .cls-2, .cls-3, .cls-4 {
        stroke: #322f6a;
        stroke-miterlimit: 10;
        stroke-width: .6px;
      }

      .cls-5 {
        fill: #363368;
      }

      .cls-6 {
        fill: #f6bb8d;
      }

      .cls-7 {
        stroke: #706f6f;
        stroke-linecap: round;
        stroke-linejoin: round;
        stroke-width: .34px;
      }

      .cls-7, .cls-3 {
        fill: none;
      }

      .cls-4 {
        fill: #fff;
      }
    </style>
  </defs>
  <g id="Camada_1-2" data-name="Camada 1">
    <g>
      <polygon class="cls-6" points="32.81 77.77 32.81 62.46 63.54 66 64.91 80.39 51.32 88.49 32.81 77.77"/>
      <path class="cls-1" d="m0,103.66s.58-16.45,18.4-23.91c0,0,10.66-5.03,14.62-4.11,3.96.91,13.1,5.79,15.84,10.36,0,0,10.05-9.75,13.4-9.75,0,0,2.89-.46,6.09,1.52,3.2,1.98,20.86,3.96,24.98,25.89H0Z"/>
      <line class="cls-7" x1="48.86" y1="102.59" x2="48.86" y2="93.76"/>
      <path class="cls-5" d="m61.49,86.33s.23-4.49-4.95-2.67l-5.31,2.14c-.55-.47-1.25-.76-2.03-.76-.88,0-1.68.37-2.25.95l-5.77-2.32c-5.18-1.83-4.95,2.67-4.95,2.67,0,0-.23,1.29,0,4.99.23,3.69,4.11,2.09,4.11,2.09,2.68-.52,5.21-2.17,6.52-3.14.57.64,1.4,1.05,2.33,1.05.78,0,1.49-.3,2.04-.77,1.39.98,3.7,2.39,6.14,2.86,0,0,3.89,1.6,4.11-2.09.23-3.69,0-4.99,0-4.99Z"/>
      <path class="cls-6" d="m70.79,32l1.01,26.27s1.19,11.99-8.9,14.07c-2.42,1.03-6.93,2.52-12.5,1.89-11.35-1.29-17.6-10.33-18.6-11.83-.23-1.24-.46-2.47-.69-3.71-4.93-.36-8.82-3.02-9.74-6.55-.2-.77-.43-2.25.22-4.21,0,0,.91-7.01,7.16-3.58l.3-10.89,3.65-1.45h38.07Z"/>
      <path class="cls-5" d="m30.74,45.71h2.67s.61,8.53,1.14,9.14c.53.61,2.97,6.09,13.48,3.27,0,0,11.88-1.37,16.56.8.62.3,1.65.71,2.98.77,2.08.09,3.62-.71,4.26-1.09.16,1.23.23,3.08-.32,5.2-.99,3.84-3.38,6.2-4.45,7.14-2.2,1.08-5.08,2.19-8.56,2.82-8.34,1.5-15.21-.68-18.59-2.04,0,0-8.41-3.2-9.18-12.56v-13.44Z"/>
      <path class="cls-6" d="m48.86,61.32h10.96s1.45.46,1.14,1.14-4.34,3.5-4.34,3.5c0,0-1.22,1.14-3.65-.38-2.44-1.52-4.11-4.26-4.11-4.26Z"/>
      <path class="cls-3" d="m57.77,45.71s-.15,3.81.38,5.1,2.44,3.2,2.44,3.2c0,0-.99,1.98-6.17,1.14"/>
      <circle class="cls-5" cx="44.77" cy="46.49" r="2.15"/>
      <circle class="cls-5" cx="63.11" cy="47.2" r="2.1"/>
      <path class="cls-5" d="m42.16,37.41v3.35s6.78.08,7.31.84c0,0,1.6-3.65-1.52-4.19h-5.79Z"/>
      <path class="cls-5" d="m59.44,37.94l.69,2.89s5.33.3,6.02,1.14c0,0,.99-3.2-1.29-4.04h-5.41Z"/>
      <path class="cls-5" d="m28.76,44.34c1.47-.02,2.94-.03,4.42-.05.58-4.09,1.17-8.19,1.75-12.28h-6.47c.1,4.11.2,8.22.3,12.34Z"/>
      <rect class="cls-4" x="28.76" y="24.16" width="42.03" height="7.84"/>
      <rect class="cls-2" x="30.74" y="22.64" width="37.31" height="1.52"/>
      <path class="cls-4" d="m38.66,4.67c.64-.63,5.38-5.09,12.18-4.26,4.67.57,7.64,3.3,8.6,4.26,6.64-2.69,13.54,1.09,14.85,6.4,1.03,4.18-1.43,9.23-6.24,11.57H31.46c-4.71-2.77-6.37-8.65-4.07-13.1,2.01-3.89,6.69-5.99,11.27-4.87Z"/>
    </g>
  </g>
</svg>