<?xml version="1.0" encoding="UTF-8"?>
<svg id="Camada_2" data-name="Camada 2" xmlns="http://www.w3.org/2000/svg" viewBox="0 0 366.91 412.74">
  <defs>
    <style>
      .cls-1 {
        fill: #fab612;
      }

      .cls-2 {
        fill: #fff;
      }

      .cls-3 {
        fill: #ce3b8e;
      }

      .cls-4 {
        fill: #b6a4cf;
      }

      .cls-5 {
        fill: #3fbfe9;
      }

      .cls-6 {
        fill: #7664aa;
      }

      .cls-7 {
        fill: #fab513;
      }

      .cls-8 {
        fill: #f18656;
      }

      .cls-9 {
        fill: #523c90;
      }

      .cls-10 {
        fill: #010101;
      }

      .cls-11 {
        fill: #482f88;
      }
    </style>
  </defs>
  <g id="Camada_1-2" data-name="Camada 1">
    <path class="cls-4" d="m120,41.06h126.91c66.23,0,120,53.77,120,120v221.05H0v-221.05C0,94.83,53.77,41.06,120,41.06Z"/>
    <g>
      <path class="cls-9" d="m86.26,130.06s4.14-10.48-.9-11.78c-5.04-1.3-9.81,4.85-9.81,4.85,0,0-10.37,2.62-13.47,8.9-3.09,6.28,8.33,14.57,8.33,14.57l15.85-16.55Z"/>
      <path class="cls-8" d="m154.14,160.15s-3.56,23.85-19.15,31.27c-12.76,6.07-26.02-1-26.02-1l8.09-25.65s8.6,1.1,15.93-3.39c6.7-4.1,8.09-10.94,8.09-10.94l13.06,9.71Z"/>
      <path class="cls-8" d="m32.46,170.38s-5.53,2.45-6,10.86c-.47,8.41,10.23,35.49,10.23,35.49l13.74-4.04,1.55-22.27-19.52-20.03Z"/>
      <polygon class="cls-8" points="122.28 349.49 117.06 341.91 135.2 329.67 143.16 336.52 130.98 350.72 122.28 349.49"/>
      <polygon class="cls-8" points="86.98 343.13 87.23 356.35 63.87 356.1 64.86 341.91 86.98 343.13"/>
      <path class="cls-9" d="m119.14,375.38c.51-.07.85-.57.76-1.1-.43-2.52-1.94-9.56-5.92-12.54-4.9-3.67-15.15-5.14-18.88-7.59-3.73-2.45-7.9-8.36-10.13-7.24-2.23,1.12-6.42,6.26-12.48,5.52-6.06-.73-8.86-2.2-10.49-.73-1.63,1.47-2.56,22.03-1.87,23.25.7,1.22,9.24.09,9.98.29.74.2,2.84-4.7,4.24-3.96,1.4.73,3.11,3.03,5.17,4.08,1.92.98,33.51.84,39.63.02Z"/>
      <path class="cls-3" d="m102.15,269.22l-2.98-56.04-36.54-.24s-1.49,12.25-2.74,26.2c-1.24,13.95-4.27,108.52-3.77,109.75.5,1.22,37.82-1.1,40.31-2.57,2.49-1.47,5.72-77.09,5.72-77.09Z"/>
      <path class="cls-9" d="m181.05,336.82c.39-.34.39-.95.01-1.34-1.79-1.85-7.06-6.83-12.09-7.09-6.18-.31-15.6,4.19-20.11,4.24-4.51.05-11.37-2.52-12.59-.35-1.22,2.17-1.81,8.76-7.3,11.53-5.49,2.77-8.66,3.11-9.19,5.24-.53,2.13,10.39,19.67,11.67,20.29,1.28.62,7.78-5.07,8.51-5.32.73-.25-.3-5.47,1.29-5.64,1.59-.17,4.32.78,6.65.5,2.17-.26,28.51-17.98,33.15-22.07Z"/>
      <path class="cls-3" d="m105.63,212.69s35.49,110.44,34.99,112.88c-.5,2.45-25.8,20.74-27.78,20.74s-16.4-25.21-16.4-25.21l-1.74-108.17,10.94-.24Z"/>
      <path class="cls-8" d="m163.09,149.61s-8.74,14.38-13.77,12.38c-5.03-2.01-7.23-6.14-7.23-6.14,0,0-5.22-14.62,1.42-15.27,8.11-.79,19.57,9.04,19.57,9.04Z"/>
      <path class="cls-8" d="m157.64,139.59s2.92-6.48-.98-6.28c-3.9.2-11.79,10.37-9.21,13.5,2.58,3.12,10.19-7.22,10.19-7.22Z"/>
      <path class="cls-8" d="m162.26,143.24s2.92-6.48-.98-6.28-11.79,10.37-9.21,13.5c2.58,3.12,10.19-7.22,10.19-7.22Z"/>
      <path class="cls-8" d="m165.71,148.03s3.53-5.21.09-5.62c-3.43-.41-11.84,7.27-10.07,10.38,1.78,3.11,9.97-4.76,9.97-4.76Z"/>
      <path class="cls-8" d="m140.76,142.42c-.59,1.9.71,3.86,2.69,4.03,3.76.33,8.8.36,7.65-2.05-1.06-2.21-4.17-3.43-6.54-4.06-1.62-.43-3.29.48-3.79,2.08h0Z"/>
      <path class="cls-8" d="m58.87,222.39c.32,1.64-1.23,5.52-1.23,5.52,0,0,.74,6-.86,6.89-1.6.89-4.2-1.24-4.2-1.24,0,0-3.07,2.57-4.49,2.68-1.42.11-7.97,1.36-10.43-1.5-2.47-2.87-.83-18.69-.83-18.69l13.73-5.22s8,9.93,8.32,11.57Z"/>
      <path class="cls-10" d="m52.57,233.93c-.17,0-.32-.11-.36-.28l-1.14-4.15c-.05-.2.06-.41.26-.46.2-.06.41.06.46.26l1.14,4.15c.05.2-.06.41-.26.46-.03,0-.07.01-.1.01Z"/>
      <path class="cls-10" d="m57.64,228.29c-.16,0-.3-.1-.36-.26l-3.04-9.24c-.06-.2.04-.41.24-.47.2-.06.41.04.47.24l3.04,9.24c.06.2-.04.41-.24.47-.04.01-.08.02-.12.02Z"/>
      <path class="cls-6" d="m87.23,356.72c-.12,0-.24-.06-.31-.16-.12-.17-.08-.4.09-.52l5.67-3.93c.17-.12.4-.07.52.09.12.17.08.4-.09.52l-5.67,3.93c-.07.04-.14.07-.21.07Z"/>
      <path class="cls-6" d="m92.91,359.02c-.11,0-.23-.05-.3-.15-.12-.17-.09-.4.07-.53l4.46-3.38c.17-.13.4-.09.53.07.12.16.09.4-.07.53l-4.46,3.38c-.07.05-.15.08-.23.08Z"/>
      <path class="cls-6" d="m143.75,338.96c-.07,0-.14-.02-.2-.06-.17-.11-.22-.34-.11-.52l3.76-5.79c.11-.17.34-.22.52-.11.17.11.22.34.11.52l-3.76,5.79c-.07.11-.19.17-.31.17Z"/>
      <path class="cls-6" d="m151.3,337.28c-.06,0-.13-.02-.19-.05-.18-.11-.24-.34-.13-.51l2.84-4.82c.1-.18.33-.24.51-.13.18.11.24.34.13.51l-2.84,4.82c-.07.12-.19.18-.32.18Z"/>
      <path class="cls-2" d="m65.62,228.45c-.59,0-1.21-.07-1.84-.22-.2-.05-.33-.25-.28-.45.05-.2.25-.32.45-.28,6.85,1.62,11.22-7.25,11.26-7.35.09-.19.31-.27.5-.17.19.09.27.31.18.5-.04.09-3.92,7.97-10.27,7.97Z"/>
      <path class="cls-2" d="m62.08,346.55c-.21,0-.38-.17-.38-.38,0-.44.48-44.61,1.79-70.78,1.31-26.19,4.21-47.57,4.24-47.78.03-.21.22-.36.42-.32.21.03.35.22.32.42-.03.21-2.93,21.57-4.24,47.72-1.31,26.16-1.78,70.31-1.78,70.75,0,.21-.17.37-.38.37Z"/>
      <path class="cls-2" d="m99.02,325.95c-.2,0-.36-.16-.37-.36l-4.33-91.14c0-.13.06-.26.17-.33l9.64-6.36c.17-.11.41-.07.52.11.11.17.07.41-.11.52l-9.46,6.24,4.32,90.93c0,.21-.15.38-.36.39h-.02Z"/>
      <path class="cls-2" d="m119.92,342.28c-.13,0-.25-.07-.32-.19l-21.89-37.29c-.11-.18-.05-.41.13-.51.18-.11.41-.04.51.13l21.89,37.29c.1.18.05.41-.13.51-.06.04-.12.05-.19.05Z"/>
      <path class="cls-6" d="m87.83,157.49s9.3.39,12.98,7.28c3.69,6.89,6.47,47.93,6.47,47.93,0,0-10.31,4.21-25.35,4.03-15.04-.18-20.13-3.79-20.13-3.79l-2.89-25.31s.46-27.46,4.21-29.33c3.75-1.87,18.49-2.29,24.71-.81Z"/>
      <path class="cls-6" d="m123.98,164.77l-1.75,31.72s-13.66,2.12-23.69-5.58c-10.03-7.7-5.72-32.4-5.72-32.4,0,0,23.84,6.48,31.16,6.26Z"/>
      <path class="cls-6" d="m71.09,156.82s-14.89,1.9-27.24,6.34c-7.52,2.71-14.1,7.61-14.1,7.61,0,0,7.64,6.87,11.22,11.02,5.03,5.82,11.89,13.22,11.89,13.22l12.1-4.91,6.13-33.26Z"/>
      <path class="cls-8" d="m72.62,148.45l.96,9.79s2.04,2.64,7.82,2.55c4.3-.07,5.71-1.18,5.71-1.18l-1.08-4.9-1.06-4.78-10.57-1.26-1.77-.21Z"/>
      <path class="cls-10" d="m74.39,148.66c.05.26.18.57.38.92,2.67,4.68,8.76,5.15,11.25,5.13l-1.06-4.78-10.57-1.26Z"/>
      <path class="cls-8" d="m84.96,127.39s6.34,11.77,4.98,18.79c-1.36,7.02-7.7,6.45-11.55,5.43s-5.77-3.17-5.77-3.17c0,0-3.4,1.47-6-1.59s-1.47-6.91.45-7.93c1.92-1.02,4.42.23,4.42.23l-2.15-3.4s6.34-18.68,15.62-8.38Z"/>
      <path class="cls-10" d="m71.6,144.48c-.06,0-.13-.02-.19-.05l-4.72-2.74c-.18-.1-.24-.33-.14-.51.1-.18.33-.24.51-.14l4.72,2.74c.18.1.24.33.14.51-.07.12-.2.19-.32.19Z"/>
      <path class="cls-10" d="m67.58,144.81c-.15,0-.3-.09-.35-.25-.07-.19.03-.41.22-.48l2.83-1.03c.2-.07.41.03.48.22.07.19-.03.41-.22.48l-2.83,1.03s-.09.02-.13.02Z"/>
      <path class="cls-10" d="m77.22,133.35c-.07,0-.14-.02-.2-.06-.18-.11-.23-.34-.12-.52,1.15-1.84,2.94-1.7,3.73-1.37.19.08.28.3.2.49-.08.19-.3.28-.49.2-.07-.03-1.71-.67-2.81,1.08-.07.11-.19.18-.32.18Z"/>
      <path class="cls-10" d="m86.68,131.96c-.07,0-.14-.02-.21-.06-1.14-.77-2.19-.02-2.2,0-.17.12-.4.09-.52-.08-.12-.17-.09-.4.08-.52.06-.04,1.49-1.06,3.06,0,.17.12.22.35.1.52-.07.11-.19.17-.31.17Z"/>
      <path class="cls-10" d="m85.36,143.11s-.05,0-.07,0c-.2-.04-.34-.24-.3-.44.71-3.66-1.42-6.08-1.45-6.1-.14-.15-.13-.39.03-.53.15-.14.39-.13.53.02.1.11,2.41,2.7,1.63,6.75-.03.18-.19.3-.37.3Z"/>
      <path class="cls-10" d="m87.09,136.67c-.15,0-.29-.09-.35-.24l-.83-2.19c-.07-.19.02-.41.22-.48.19-.07.41.02.48.22l.83,2.19c.07.19-.02.41-.22.48-.04.02-.09.02-.13.02Z"/>
      <path class="cls-10" d="m80.91,137.39c-.15,0-.29-.09-.35-.24l-.83-2.19c-.07-.19.02-.41.22-.48.19-.07.41.02.48.22l.83,2.19c.07.19-.02.41-.22.48-.04.02-.09.02-.13.02Z"/>
      <path class="cls-9" d="m86.26,130.06s-1.26-1.86-3.7-1.64c-2.44.22-3.7,2.08-3.7,2.08,0,0,1.47,4.01-1.63,6.52-3.11,2.51-5.74,2.15-5.74,2.15l-2.49-.62-2.11-3.35,6.24-8.19,8.56-5.64,5.01,3.72-.42,4.98Z"/>
      <path class="cls-10" d="m83.34,145.62c-.97,0-2.36-.36-3.17-1.73-.11-.18-.05-.41.13-.51.18-.11.41-.05.51.13,1,1.68,2.93,1.34,3.01,1.33.2-.04.4.09.44.3.04.2-.09.4-.3.44-.17.03-.38.06-.62.06Z"/>
      <path class="cls-1" d="m105.76,194.96c-.19,0-.35-.14-.37-.33l-1.87-16.02c-.02-.21.12-.39.33-.42.2-.02.39.12.42.33l1.87,16.02c.02.21-.12.39-.33.42-.01,0-.03,0-.04,0Z"/>
      <path class="cls-1" d="m59.89,192.52c-.07,0-.13-.02-.19-.05-.12-.07-.19-.21-.18-.35.01-.19.31-4.7,2.32-6.06.63-.43,1.36-.51,2.15-.24.9.3,1.15.83,1.2,1.21.23,1.94-4.2,4.86-5.09,5.42-.06.04-.13.06-.2.06Zm3.21-6.1c-.31,0-.59.09-.85.26-1.18.79-1.72,3.22-1.91,4.71,1.87-1.27,4.22-3.25,4.1-4.27-.01-.09-.05-.37-.69-.59-.23-.08-.44-.12-.64-.12Z"/>
      <path class="cls-1" d="m81.74,161.21c-2.32,0-5.22-.61-8.37-2.65-.17-.11-.22-.34-.11-.52.11-.17.35-.22.52-.11,7.31,4.74,13.07,1.39,13.12,1.36.18-.11.41-.05.51.13.11.18.05.41-.13.51-.04.02-2.2,1.28-5.55,1.28Z"/>
      <path class="cls-10" d="m150.33,156s-.04,0-.06,0c-.2-.03-.35-.22-.32-.43.55-3.66-1.66-8.29-1.68-8.34-.05-.1-.05-.23,0-.33.05-.1.15-.18.26-.2,1.93-.41,3.04-1,3.13-1.68.13-1.01-1.9-2.41-3.22-3.06-.19-.09-.26-.32-.17-.5.09-.19.32-.26.5-.17.4.2,3.86,1.97,3.63,3.83-.12.99-1.19,1.71-3.26,2.21.55,1.27,2.04,5.09,1.55,8.35-.03.19-.19.32-.37.32Z"/>
      <path class="cls-10" d="m157.39,153.89c-.68,0-1.35-.23-1.93-.86-.4-.44-.58-.95-.52-1.52.17-1.62,2.24-3.13,2.33-3.19l4.71-5.34c.14-.15.37-.17.53-.03.16.14.17.37.03.53l-4.77,5.39c-.59.44-1.97,1.65-2.08,2.72-.04.35.07.66.33.94,1.6,1.75,4.6-.88,4.63-.91.15-.14.39-.12.53.03.14.15.12.39-.03.53-.11.09-1.95,1.71-3.75,1.71Z"/>
      <path class="cls-10" d="m154.1,150.51c-.79,0-1.62-.25-2.39-.9-1.87-1.59.68-4.76.78-4.89l5.35-6.64c.13-.16.37-.19.53-.06.16.13.19.37.06.53l-5.35,6.65s-2.18,2.75-.88,3.85c2.29,1.94,4.93-.56,5.04-.67.15-.14.39-.14.53,0,.14.15.14.39,0,.53-.73.71-2.14,1.61-3.65,1.61Z"/>
    </g>
    <g>
      <path class="cls-11" d="m271.46,35.41c2.19,19.02,22.06,34.05,27.47,33.9,5.6-.16,24.78-16.27,25.51-35.4C325.21,13.59,311.59-.41,296.96,0c-14.63.41-27.75,15.91-25.51,35.4Z"/>
      <path class="cls-5" d="m231.33,63.02c1.57,13.64,15.82,24.41,19.7,24.3,4.02-.11,17.77-11.67,18.29-25.38.56-14.56-9.21-24.6-19.7-24.3-10.49.3-19.9,11.41-18.29,25.38Z"/>
      <g>
        <path class="cls-8" d="m321.01,108.85s7.49-11.66,9.49-20.12c2-8.47.77-11.8-.44-12.27-1.21-.47-3.65,4.55-3.65,4.55,0,0,1.66-8.01-1.02-9-2.68-.99-4.92,5.88-4.92,5.88,0,0,0-5.96-2.43-5.35-2.44.61-5.49,13.56-5.49,13.56,0,0-.62-6.85-2.51-6.41-1.89.45-4.83,9.79-4.19,13.53.64,3.74,3.16,8.59,3.16,8.59l12,7.03Z"/>
        <path class="cls-10" d="m315.56,99.32c.21,0,.39-.15.41-.36,1.16-9.33-2.98-13.02-3.15-13.18-.17-.15-.43-.13-.58.04-.15.17-.13.43.04.58.04.04,3.97,3.59,2.87,12.45-.03.23.13.43.36.46.02,0,.03,0,.05,0Z"/>
        <path class="cls-10" d="m325.91,90.79c.15,0,.29-.08.37-.22.11-.2.03-.45-.18-.56l-12.76-6.63c-.2-.1-.45-.03-.56.18-.11.2-.03.45.18.56l12.76,6.63c.06.03.13.05.19.05Z"/>
        <path class="cls-2" d="m260.47,131.98s-17.1,2.97-19.46,19.55c-2.37,16.58,28.29,22.03,28.29,22.03,0,0,17.69,3.99,24.01-7.12,6.32-11.12-8.76-20.3-8.76-20.3,0,0-17.52-17.67-24.08-14.16Z"/>
        <path class="cls-3" d="m327.86,107.16l-24.53-13.19s-18.19,54.57-27.48,64.47c-9.66,10.29,14.2,29.4,14.2,29.4,0,0,33.63-23.4,37.8-80.67Z"/>
        <path class="cls-8" d="m216,111.06s-7.49-11.66-9.49-20.12c-2-8.47-.77-11.8.44-12.27,1.21-.47,3.65,4.55,3.65,4.55,0,0-1.66-8.01,1.02-9,2.68-.99,4.92,5.88,4.92,5.88,0,0,0-5.96,2.43-5.35,2.44.61,5.49,13.56,5.49,13.56,0,0,.62-6.85,2.51-6.41,1.89.45,4.83,9.79,4.19,13.53-.64,3.74-3.16,8.59-3.16,8.59l-12,7.03Z"/>
        <path class="cls-10" d="m221.45,101.53c.28-.03.44-.24.41-.47-1.1-8.86,2.83-12.41,2.87-12.45.17-.15.19-.41.04-.58-.15-.17-.41-.19-.58-.04-.18.15-4.31,3.84-3.15,13.18.03.21.21.36.41.36Z"/>
        <path class="cls-10" d="m211.1,93c.06,0,.13-.02.19-.05l12.76-6.63c.2-.11.28-.36.18-.56-.11-.2-.36-.28-.56-.18l-12.76,6.63c-.2.11-.28.36-.18.56.07.14.22.22.37.22Z"/>
        <polygon class="cls-8" points="265.48 375.28 265.46 363.14 288.15 362.33 288.95 379.07 277.74 381.97 265.48 375.28"/>
        <path class="cls-9" d="m291.03,218.46s19.97,53.76,16.52,83.63c-3.79,32.87-8.19,58.94-8.97,60.66-.78,1.72-45.55,1.23-45.55,1.23l22.13-143.06,15.88-2.46Z"/>
        <polygon class="cls-8" points="220.01 364.71 224.19 355.87 246.06 362.99 240.17 377.01 228.37 375.53 220.01 364.71"/>
        <path class="cls-9" d="m244.42,218.46s-9.63,16.96-8.33,41.54c1.3,24.58,3.38,33.18,3.38,33.18,0,0-26.55,60.47-26.03,61.94.52,1.47,36.96,15.73,39.57,14.5,2.6-1.23,29.41-71.29,30.72-75.71,1.3-4.42-2.34-73.01-2.34-73.01l-36.96-2.46Z"/>
        <path class="cls-1" d="m265.95,397.47c-1.67-.06-3.01-1.48-3.03-3.23-.1-6.92-.19-22.93,1.1-22.95,1.64-.02,17.22,4.67,17.22,4.67,0,0,.33-9.59,7.17-7.97,5.25,1.25,11.39,7.26,13.97,9.99.82.87,1.85,1.46,2.98,1.72,4.89,1.12,18.34,4.84,18.64,11.88.36,8.6-3.18,7.67-4.83,7.69-1.41.02-41.81-1.4-53.22-1.8Z"/>
        <path class="cls-1" d="m211.7,385.69c-1.42-.82-1.9-2.69-1.1-4.24,3.16-6.15,9.5-20.34,10.62-19.76,1.43.74,13.79,12.05,13.79,12.05,0,0,4.79-8.31,9.94-3.73,3.95,3.52,6.43,11.65,7.38,15.25.3,1.14.91,2.14,1.77,2.9,3.7,3.24,13.57,12.72,10.52,19.06-3.73,7.76-6.35,5.3-7.78,4.57-1.23-.63-35.46-20.48-45.13-26.09Z"/>
        <path class="cls-6" d="m258.79,362.09c.17,0,.33-.1.39-.27.2-.53,19.51-53.06,23.29-63.13,3.7-9.85-2.68-52.99-3.37-57.54l10.74-4.3c.21-.08.32-.33.23-.54-.09-.21-.33-.32-.54-.23l-11.04,4.42c-.18.07-.29.26-.26.45.07.47,7.21,47.47,3.47,57.45-3.79,10.08-23.1,62.61-23.3,63.14-.08.21.03.45.25.53.05.02.1.03.14.03Z"/>
        <path class="cls-6" d="m246.06,356.28c.17,0,.32-.1.39-.26.08-.21-.02-.45-.23-.54l-28.64-11.36c-.22-.08-.45.02-.54.23-.08.21.02.45.23.54l28.64,11.36c.05.02.1.03.15.03Z"/>
        <path class="cls-6" d="m261.81,353.88h27.87c.23,0,.41-.19.41-.41,0-.23-.19-.41-.41-.41h-27.87c-.23,0-.41.19-.41.41,0,.23.19.41.41.41Z"/>
        <path class="cls-3" d="m266.31,159.73s-13.83-18.01-19.17-30.24c-5.35-12.22-13.85-32.66-13.85-32.66l-27.08,10.62s7.19,24.49,16.96,43.67c9.77,19.18,16.22,29.05,16.22,29.05,0,0,.37,41.09.92,41.84.55.75,15.6,4.18,32.51,3.22,16.9-.96,20.59-3.41,21.51-3.98.92-.57-7-54.4-7-54.4,0,0-7.74-6.95-21.02-7.13Z"/>
        <path class="cls-8" d="m265.13,148.22l-.87,10.06s1.56,3.05,7.41,4.03c4.35.73,5.98-.12,5.98-.12l-.17-5.15-.17-5.02-10.42-3.25-1.75-.55Z"/>
        <path class="cls-10" d="m265.19,147.74c0,.28.08.61.21,1,1.82,5.22,9.57,7.86,12.08,8.3l-.17-5.02-12.11-4.28Z"/>
        <path class="cls-8" d="m281.53,129.28s4.19,13.07,1.51,19.9-8.98,5.07-12.67,3.32c-3.69-1.75-5.23-4.28-5.23-4.28,0,0-3.7.85-5.76-2.72-2.05-3.57-.19-7.24,1.94-7.91,2.13-.67,4.41,1.06,4.41,1.06l-1.53-3.83s9.9-17.66,17.33-5.53Z"/>
        <path class="cls-10" d="m281.1,138.03c.16,0,.32-.1.38-.25,0-.01.19-.43.6-.59.29-.11.65-.07,1.06.12.2.1.45,0,.55-.2.1-.21,0-.45-.2-.55-.63-.29-1.2-.34-1.72-.14-.75.29-1.05,1.01-1.06,1.04-.09.21.01.45.23.54.05.02.1.03.16.03Z"/>
        <path class="cls-10" d="m273.59,137.91c.1,0,.2-.04.28-.11,1.23-1.16,2.24-.22,2.36-.11.16.16.42.16.59,0,.16-.16.16-.42,0-.58-.57-.58-2.04-1.3-3.51.09-.17.16-.17.42-.02.59.08.09.19.13.3.13Z"/>
        <path class="cls-10" d="m282.8,134.58c.18,0,.35-.12.4-.3.06-.22-.07-.45-.29-.51l-2.4-.66c-.23-.06-.45.07-.51.29-.06.22.07.45.29.51l2.4.66s.07.02.11.02Z"/>
        <path class="cls-10" d="m273.56,134.46s.07,0,.11-.02l2.98-.84c.22-.06.35-.29.29-.51-.06-.22-.29-.35-.51-.29l-2.98.84c-.22.06-.35.29-.29.51.05.18.22.3.4.3Z"/>
        <path class="cls-10" d="m279.62,144.48c.19,0,.36-.13.4-.32.96-4.21-.56-6.57-.63-6.66-.13-.19-.39-.24-.57-.12-.19.13-.24.38-.12.57.01.02,1.39,2.18.51,6.02-.05.22.09.45.31.5.03,0,.06.01.09.01Z"/>
        <path class="cls-10" d="m274.59,148.02c-1.48-.63-1.43-2.42-1.43-2.49,0-.13.07-.26.19-.33.11-.07.25-.09.38-.04l3.59,1.42c.13.05.22.16.25.3.03.14-.01.28-.11.38-.05.05-.93.94-2.05.94-.26,0-.54-.05-.82-.17Zm-.52-1.84c.1.39.33.85.85,1.07.52.22,1.03.04,1.41-.18l-2.25-.89Z"/>
        <path class="cls-10" d="m265.17,143.73c.14,0,.28-.07.35-.2.12-.2.06-.45-.14-.57l-4.75-2.91c-.2-.12-.45-.06-.57.14-.12.2-.06.45.14.57l4.75,2.91c.07.04.14.06.22.06Z"/>
        <path class="cls-10" d="m260.54,144.34c.09,0,.18-.03.25-.09l2.49-1.92c.18-.14.22-.4.08-.58-.14-.18-.4-.21-.58-.08l-2.49,1.92c-.18.14-.22.4-.08.58.08.11.2.16.33.16Z"/>
        <path class="cls-2" d="m274.17,129.11s2.92-.08,5.68,2.1c2.77,2.18,3.16,4.01,3.16,4.01,0,0,2.43-4.44-1.12-9.06-3.54-4.62-12.1-6.51-17.64-2.79-6.58,4.42-5.81,10.79-5.81,10.79l7.27,4.47s9.66-.65,8.44-9.53Z"/>
        <path class="cls-2" d="m327.19,116.22c.15,0,.29-.08.37-.22.11-.2.03-.45-.17-.56l-26.05-13.74c-.2-.11-.45-.03-.56.17s-.03.45.17.56l26.05,13.74c.06.03.13.05.19.05Z"/>
        <path class="cls-2" d="m208.3,114.52s.1,0,.14-.03l27.89-10.34c.21-.08.32-.32.24-.53-.08-.21-.32-.32-.53-.24l-27.89,10.34c-.21.08-.32.32-.24.53.06.17.22.27.39.27Z"/>
        <path class="cls-2" d="m290.06,188.24c.21,0,.39-.16.41-.37,1.04-10.31-4.37-18.31-4.42-18.39-.13-.19-.39-.24-.58-.11-.19.13-.24.39-.11.58.05.08,5.29,7.84,4.28,17.84-.02.23.14.43.37.45.01,0,.03,0,.04,0Z"/>
        <path class="cls-1" d="m277.54,158.76s.74.82.93,1.38c.18.56.98,4.89.58,5.9-.4,1.01-3.63,2.77-9.43,1.75-5.81-1.01-7.1-6.28-7.28-7.65s2.13-4.14,2.13-4.14c0,0-.08,3.66,5.61,5.12,5.7,1.46,7.52-.63,7.46-2.36Z"/>
        <path class="cls-7" d="m275.37,166.23s3.1,6.64,3.28,10.23-3.66,12.44-4.41,12.81-4.99-9.31-5.27-11.52,3.5-12.35,3.5-12.35l2.89.83Z"/>
        <path class="cls-1" d="m275.12,166.23s3.1,6.64,3.28,10.23c.18,3.6-3.66,12.44-4.41,12.81-.75.37-4.99-9.31-5.27-11.52s3.5-12.35,3.5-12.35l2.89.83Z"/>
        <path class="cls-1" d="m271.82,165.03s0,7.32-1.34,10.66c-1.35,3.34-8.57,9.74-9.41,9.75-.84.02-.6-10.55.09-12.67s8.39-9.72,8.39-9.72l2.27,1.97Z"/>
        <path class="cls-6" d="m273.12,165.1c.12,0,.19,0,.21,0,.23-.01.4-.21.39-.43,0-.23-.2-.41-.43-.39-.05,0-5.14.18-8.88-4.01-.15-.17-.41-.19-.59-.03-.17.15-.19.41-.03.59,3.61,4.05,8.26,4.29,9.32,4.29Z"/>
        <path class="cls-6" d="m273.43,177.52c-1.48-1.08-.18-7.37.25-9.27.04-.17.18-.3.36-.32.17-.02.34.08.42.24.14.3,3.42,7.45.29,9.3-.3.18-.55.24-.76.24-.24,0-.43-.09-.57-.18Zm.49-.67c.1.07.3-.03.42-.1,1.71-1.01.75-4.71-.12-7.02-.64,3.29-.93,6.66-.3,7.12Z"/>
      </g>
    </g>
  </g>
</svg>