<?xml version="1.0" encoding="UTF-8"?>
<svg id="Camada_2" data-name="Camada 2" xmlns="http://www.w3.org/2000/svg" viewBox="0 0 123.12 108.12">
  <defs>
    <style>
      .cls-1 {
        fill: #383163;
      }

      .cls-2 {
        fill: #fff;
      }

      .cls-3 {
        fill: #373463;
      }

      .cls-4 {
        fill: #fdfafc;
      }

      .cls-5 {
        fill: #f28d5f;
      }
    </style>
  </defs>
  <g id="Camada_1-2" data-name="Camada 1">
    <g>
      <rect class="cls-4" width="85.43" height="103.4" rx="5.7" ry="5.7"/>
      <path class="cls-3" d="m19.07,33.12c-.54,0-1.07-.19-1.5-.57l-6.02-5.37c-.93-.83-1.01-2.25-.18-3.18.83-.93,2.25-1.01,3.18-.18l4.48,4,10.14-9.58c.9-.85,2.33-.81,3.19.09.85.9.81,2.33-.09,3.19l-11.65,10.99c-.43.41-.99.61-1.55.61Z"/>
      <path class="cls-3" d="m19.07,59.45c-.54,0-1.07-.19-1.5-.57l-6.02-5.37c-.93-.83-1.01-2.25-.18-3.18.83-.93,2.25-1.01,3.18-.18l4.48,4,10.14-9.58c.9-.85,2.33-.81,3.19.09.85.9.81,2.33-.09,3.19l-11.65,10.99c-.43.41-.99.61-1.55.61Z"/>
      <path class="cls-3" d="m19.07,82.7c-.54,0-1.07-.19-1.5-.57l-6.02-5.37c-.93-.83-1.01-2.25-.18-3.18.83-.93,2.25-1.01,3.18-.18l4.48,4,10.14-9.58c.9-.85,2.33-.81,3.19.09.85.9.81,2.33-.09,3.19l-11.65,10.99c-.43.41-.99.61-1.55.61Z"/>
      <path class="cls-1" d="m92.76,92.81h-42.77c-1.24,0-2.25-1.01-2.25-2.25s1.01-2.25,2.25-2.25h41.71c.51-.72,1.22-1.99,1.22-3.48,0-3.39,4.16-41.25,4.63-45.56,0-.07.02-.13.03-.2.41-2.03,2.32-5.8,6.55-5.56,3.29.19,16.57,0,16.7-.01,1.22-.04,2.27.97,2.29,2.22.02,1.24-.97,2.27-2.22,2.29-.55,0-13.57.2-17.03,0-1.25-.08-1.75,1.47-1.86,1.89-1.85,16.81-4.59,42.56-4.59,44.93,0,4.19-2.77,7.03-3.08,7.34-.42.42-.99.65-1.58.65Z"/>
      <circle class="cls-1" cx="59.38" cy="101.75" r="6.37"/>
      <circle class="cls-1" cx="84.08" cy="101.75" r="6.37"/>
      <rect class="cls-5" x="39.55" y="22.09" width="35.34" height="5.42" rx="2.71" ry="2.71"/>
      <path class="cls-5" d="m43.36,60.36c-1.1-3.35-1.77-6.21-2.2-8.36-.43-2.15-.63-3.69.29-4.74.71-.81,1.79-1.01,2.52-1.06h51.4l-3.81,33.31-38.55.94c-.4-.09-.99-.27-1.63-.62-2.94-1.6-3.62-5.05-5.12-10.34-.62-2.18-1.56-5.32-2.89-9.13Z"/>
      <ellipse class="cls-2" cx="77.7" cy="62.83" rx="3.92" ry="5.63" transform="translate(-12.65 20.15) rotate(-13.67)"/>
      <ellipse class="cls-2" cx="57.72" cy="62.83" rx="3.92" ry="5.63" transform="translate(-13.22 15.42) rotate(-13.67)"/>
    </g>
  </g>
</svg>