<?xml version="1.0" encoding="UTF-8"?>
<svg id="Camada_2" data-name="Camada 2" xmlns="http://www.w3.org/2000/svg" viewBox="0 0 130.11 112.49">
  <defs>
    <style>
      .cls-1 {
        fill: #383163;
      }

      .cls-2 {
        fill: #4d8faa;
      }

      .cls-3 {
        fill: #fff;
      }

      .cls-4 {
        fill: #fffdfd;
      }

      .cls-5 {
        fill: #8e95cb;
      }

      .cls-6 {
        fill: #f18b5e;
      }

      .cls-7 {
        fill: #8e94ca;
      }

      .cls-8 {
        fill: #eb8d6e;
      }

      .cls-9 {
        fill: #f8b57e;
      }

      .cls-10 {
        fill: #8d6f61;
      }
    </style>
  </defs>
  <g id="Camada_1-2" data-name="Camada 1">
    <g>
      <rect class="cls-7" y="12.61" width="83.14" height="90" rx="11.9" ry="11.9"/>
      <rect class="cls-4" x="10.98" y="21.83" width="61.77" height="70.79" rx="4.28" ry="4.28"/>
      <rect class="cls-5" x="20.59" y="39.67" width="43.33" height="4.71" rx="2.35" ry="2.35"/>
      <rect class="cls-5" x="20.59" y="52.62" width="43.33" height="4.71" rx="2.35" ry="2.35"/>
      <rect class="cls-5" x="20.59" y="64.68" width="25.69" height="4.71" rx="2.35" ry="2.35"/>
      <ellipse class="cls-6" cx="94.51" cy="81.57" rx="28.43" ry="27.91"/>
      <path class="cls-1" d="m55.82,9.09h-4.51c0-5.02-4.07-9.09-9.09-9.09s-9.09,4.07-9.09,9.09h-4.51c-2.74,0-4.97,2.22-4.97,4.97v5.49c0,2.74,2.22,4.97,4.97,4.97h27.19c2.74,0,4.97-2.22,4.97-4.97v-5.49c0-2.74-2.22-4.97-4.97-4.97Z"/>
      <path class="cls-8" d="m72.75,83.21c-10.18-.64-20.36-1.29-30.55-1.93-.22,1.35-.34,2.74-.34,4.15,0,14.94,12.88,27.06,28.78,27.06,14.53,0,26.54-10.13,28.49-23.3-8.79-1.99-17.59-3.99-26.38-5.98Z"/>
      <path class="cls-2" d="m99.42,57.62s10.2-23.24,30.59-16.37c0,0,3.53,15.69-30.59,16.37Z"/>
      <path class="cls-3" d="m45.69,81.5c-.04.59-.07,1.18-.07,1.78,0,13.75,11.15,24.9,24.9,24.9,12.05,0,22.1-8.56,24.41-19.94-7.39-1.68-14.79-3.35-22.18-5.03-9.02-.57-18.04-1.14-27.06-1.71Z"/>
      <circle class="cls-10" cx="85.54" cy="74.33" r="1.03"/>
      <ellipse class="cls-10" cx="78.78" cy="76.07" rx="1.74" ry=".83" transform="translate(-25.87 108.34) rotate(-61.13)"/>
      <ellipse class="cls-10" cx="87.6" cy="64.68" rx="1.03" ry="1.57"/>
      <path class="cls-9" d="m72.75,83.21c-7.61-.48-15.23-.96-22.84-1.44,0,.18-.01.35-.01.53,0,11.26,9.13,20.39,20.39,20.39,9.59,0,17.63-6.62,19.81-15.54-5.78-1.31-11.56-2.62-17.35-3.93Z"/>
      <path class="cls-3" d="m54.21,94.83l14.75-11.96v4.9l-10.15,11.37s-3.46-1.44-4.6-4.31Z"/>
      <path class="cls-3" d="m65.66,102.15s3.41.88,5.91.53l.72-15.49-2.3-.39-4.33,15.35Z"/>
      <path class="cls-3" d="m72.75,83.21l.33,3.59,7.21,13.26c.8-.27,2.04-.81,3.24-1.89.76-.68,1.29-1.39,1.64-1.95-2.9-3.71-5.8-7.41-8.7-11.12l-3.73-1.9Z"/>
      <path class="cls-9" d="m68.96,82.88l3.79.33c.1.21,1.27,2.57,1.4,3.27.02.09.06.31-.06.45-.12.15-.34.15-.46.16-.53.05-.86.49-1.11.69-.83.67-3.34.75-4.14-.43-.25-.38-.25-.77-.24-1.56.02-1.53.65-2.97.79-2.94,0,0,.02,0,.03.03Z"/>
    </g>
  </g>
</svg>